<mxfile host="app.diagrams.net" modified="2024-03-23T07:25:43.712Z" agent="Mozilla/5.0 (Windows NT 10.0; Win64; x64) AppleWebKit/537.36 (KHTML, like Gecko) Chrome/122.0.0.0 Safari/537.36" etag="x-YeE2aUah33iD39LuCx" version="24.0.8" type="device">
  <diagram name="PÃ¡gina-1" id="LqC9ueAYgSJt68x8iOiN">
    <mxGraphModel dx="1687" dy="922" grid="1" gridSize="10" guides="1" tooltips="1" connect="1" arrows="1" fold="1" page="1" pageScale="1" pageWidth="850" pageHeight="1100" math="0" shadow="0">
      <root>
        <mxCell id="0" />
        <mxCell id="1" parent="0" />
        <mxCell id="KSNa818uE_4vNzoccC8n-6" style="edgeStyle=orthogonalEdgeStyle;rounded=0;orthogonalLoop=1;jettySize=auto;html=1;endArrow=none;endFill=0;" edge="1" parent="1" source="KSNa818uE_4vNzoccC8n-1" target="KSNa818uE_4vNzoccC8n-2">
          <mxGeometry relative="1" as="geometry">
            <Array as="points">
              <mxPoint x="370" y="120" />
              <mxPoint x="170" y="120" />
            </Array>
          </mxGeometry>
        </mxCell>
        <mxCell id="KSNa818uE_4vNzoccC8n-7" style="edgeStyle=orthogonalEdgeStyle;rounded=0;orthogonalLoop=1;jettySize=auto;html=1;endArrow=none;endFill=0;" edge="1" parent="1" source="KSNa818uE_4vNzoccC8n-1" target="KSNa818uE_4vNzoccC8n-3">
          <mxGeometry relative="1" as="geometry" />
        </mxCell>
        <mxCell id="KSNa818uE_4vNzoccC8n-8" style="edgeStyle=orthogonalEdgeStyle;rounded=0;orthogonalLoop=1;jettySize=auto;html=1;entryX=0.5;entryY=1;entryDx=0;entryDy=0;endArrow=none;endFill=0;" edge="1" parent="1" source="KSNa818uE_4vNzoccC8n-1" target="KSNa818uE_4vNzoccC8n-4">
          <mxGeometry relative="1" as="geometry" />
        </mxCell>
        <mxCell id="KSNa818uE_4vNzoccC8n-9" style="edgeStyle=orthogonalEdgeStyle;rounded=0;orthogonalLoop=1;jettySize=auto;html=1;endArrow=none;endFill=0;" edge="1" parent="1" source="KSNa818uE_4vNzoccC8n-1" target="KSNa818uE_4vNzoccC8n-5">
          <mxGeometry relative="1" as="geometry">
            <Array as="points">
              <mxPoint x="370" y="120" />
              <mxPoint x="510" y="120" />
            </Array>
          </mxGeometry>
        </mxCell>
        <mxCell id="KSNa818uE_4vNzoccC8n-12" style="edgeStyle=orthogonalEdgeStyle;rounded=0;orthogonalLoop=1;jettySize=auto;html=1;entryX=0.5;entryY=0;entryDx=0;entryDy=0;endArrow=none;endFill=0;" edge="1" parent="1" source="KSNa818uE_4vNzoccC8n-1" target="KSNa818uE_4vNzoccC8n-10">
          <mxGeometry relative="1" as="geometry" />
        </mxCell>
        <mxCell id="KSNa818uE_4vNzoccC8n-1" value="tienda_mascotas" style="whiteSpace=wrap;html=1;align=center;" vertex="1" parent="1">
          <mxGeometry x="320" y="160" width="100" height="40" as="geometry" />
        </mxCell>
        <mxCell id="KSNa818uE_4vNzoccC8n-2" value="nombre_tienda" style="ellipse;whiteSpace=wrap;html=1;align=center;" vertex="1" parent="1">
          <mxGeometry x="120" y="40" width="100" height="40" as="geometry" />
        </mxCell>
        <mxCell id="KSNa818uE_4vNzoccC8n-3" value="ID-tienda" style="ellipse;whiteSpace=wrap;html=1;align=center;fontStyle=4;" vertex="1" parent="1">
          <mxGeometry x="240" y="40" width="100" height="40" as="geometry" />
        </mxCell>
        <mxCell id="KSNa818uE_4vNzoccC8n-4" value="ubicacion" style="ellipse;whiteSpace=wrap;html=1;align=center;" vertex="1" parent="1">
          <mxGeometry x="350" y="40" width="100" height="40" as="geometry" />
        </mxCell>
        <mxCell id="KSNa818uE_4vNzoccC8n-5" value="num. de contacto" style="ellipse;whiteSpace=wrap;html=1;align=center;" vertex="1" parent="1">
          <mxGeometry x="460" y="40" width="100" height="40" as="geometry" />
        </mxCell>
        <mxCell id="KSNa818uE_4vNzoccC8n-10" value="tiene&amp;nbsp;" style="shape=rhombus;perimeter=rhombusPerimeter;whiteSpace=wrap;html=1;align=center;" vertex="1" parent="1">
          <mxGeometry x="310" y="260" width="120" height="60" as="geometry" />
        </mxCell>
        <mxCell id="KSNa818uE_4vNzoccC8n-17" style="edgeStyle=orthogonalEdgeStyle;rounded=0;orthogonalLoop=1;jettySize=auto;html=1;entryX=0.5;entryY=1;entryDx=0;entryDy=0;endArrow=ERmany;endFill=0;" edge="1" parent="1" source="KSNa818uE_4vNzoccC8n-13" target="KSNa818uE_4vNzoccC8n-10">
          <mxGeometry relative="1" as="geometry" />
        </mxCell>
        <mxCell id="KSNa818uE_4vNzoccC8n-24" style="edgeStyle=orthogonalEdgeStyle;rounded=0;orthogonalLoop=1;jettySize=auto;html=1;entryX=1;entryY=0.5;entryDx=0;entryDy=0;endArrow=none;endFill=0;" edge="1" parent="1" source="KSNa818uE_4vNzoccC8n-13" target="KSNa818uE_4vNzoccC8n-19">
          <mxGeometry relative="1" as="geometry">
            <Array as="points">
              <mxPoint x="240" y="460" />
              <mxPoint x="240" y="350" />
            </Array>
          </mxGeometry>
        </mxCell>
        <mxCell id="KSNa818uE_4vNzoccC8n-25" style="edgeStyle=orthogonalEdgeStyle;rounded=0;orthogonalLoop=1;jettySize=auto;html=1;entryX=1;entryY=0.5;entryDx=0;entryDy=0;endArrow=none;endFill=0;" edge="1" parent="1" source="KSNa818uE_4vNzoccC8n-13" target="KSNa818uE_4vNzoccC8n-20">
          <mxGeometry relative="1" as="geometry">
            <Array as="points">
              <mxPoint x="240" y="460" />
              <mxPoint x="240" y="400" />
            </Array>
          </mxGeometry>
        </mxCell>
        <mxCell id="KSNa818uE_4vNzoccC8n-26" style="edgeStyle=orthogonalEdgeStyle;rounded=0;orthogonalLoop=1;jettySize=auto;html=1;endArrow=none;endFill=0;" edge="1" parent="1" source="KSNa818uE_4vNzoccC8n-13" target="KSNa818uE_4vNzoccC8n-21">
          <mxGeometry relative="1" as="geometry">
            <Array as="points">
              <mxPoint x="220" y="460" />
              <mxPoint x="220" y="460" />
            </Array>
          </mxGeometry>
        </mxCell>
        <mxCell id="KSNa818uE_4vNzoccC8n-27" style="edgeStyle=orthogonalEdgeStyle;rounded=0;orthogonalLoop=1;jettySize=auto;html=1;endArrow=none;endFill=0;" edge="1" parent="1" source="KSNa818uE_4vNzoccC8n-13" target="KSNa818uE_4vNzoccC8n-23">
          <mxGeometry relative="1" as="geometry">
            <Array as="points">
              <mxPoint x="240" y="460" />
              <mxPoint x="240" y="520" />
            </Array>
          </mxGeometry>
        </mxCell>
        <mxCell id="KSNa818uE_4vNzoccC8n-38" style="edgeStyle=orthogonalEdgeStyle;rounded=0;orthogonalLoop=1;jettySize=auto;html=1;endArrow=none;endFill=0;" edge="1" parent="1" source="KSNa818uE_4vNzoccC8n-13" target="KSNa818uE_4vNzoccC8n-37">
          <mxGeometry relative="1" as="geometry" />
        </mxCell>
        <mxCell id="KSNa818uE_4vNzoccC8n-13" value="empleado" style="whiteSpace=wrap;html=1;align=center;" vertex="1" parent="1">
          <mxGeometry x="320" y="440" width="100" height="40" as="geometry" />
        </mxCell>
        <mxCell id="KSNa818uE_4vNzoccC8n-18" style="edgeStyle=orthogonalEdgeStyle;rounded=0;orthogonalLoop=1;jettySize=auto;html=1;endArrow=ERmany;endFill=0;" edge="1" parent="1" source="KSNa818uE_4vNzoccC8n-14" target="KSNa818uE_4vNzoccC8n-10">
          <mxGeometry relative="1" as="geometry" />
        </mxCell>
        <mxCell id="KSNa818uE_4vNzoccC8n-41" style="edgeStyle=orthogonalEdgeStyle;rounded=0;orthogonalLoop=1;jettySize=auto;html=1;entryX=0.5;entryY=0;entryDx=0;entryDy=0;endArrow=ERmandOne;endFill=0;" edge="1" parent="1" source="KSNa818uE_4vNzoccC8n-14" target="KSNa818uE_4vNzoccC8n-40">
          <mxGeometry relative="1" as="geometry" />
        </mxCell>
        <mxCell id="KSNa818uE_4vNzoccC8n-14" value="cliente" style="whiteSpace=wrap;html=1;align=center;" vertex="1" parent="1">
          <mxGeometry x="590" y="270" width="100" height="40" as="geometry" />
        </mxCell>
        <mxCell id="KSNa818uE_4vNzoccC8n-19" value="nombre" style="ellipse;whiteSpace=wrap;html=1;align=center;" vertex="1" parent="1">
          <mxGeometry x="70" y="330" width="100" height="40" as="geometry" />
        </mxCell>
        <mxCell id="KSNa818uE_4vNzoccC8n-20" value="num.telefonico" style="ellipse;shape=doubleEllipse;margin=3;whiteSpace=wrap;html=1;align=center;" vertex="1" parent="1">
          <mxGeometry x="70" y="380" width="100" height="40" as="geometry" />
        </mxCell>
        <mxCell id="KSNa818uE_4vNzoccC8n-21" value="ID-empleado" style="ellipse;whiteSpace=wrap;html=1;align=center;fontStyle=4;" vertex="1" parent="1">
          <mxGeometry x="70" y="440" width="100" height="40" as="geometry" />
        </mxCell>
        <mxCell id="KSNa818uE_4vNzoccC8n-23" value="horario laboral" style="ellipse;whiteSpace=wrap;html=1;align=center;dashed=1;" vertex="1" parent="1">
          <mxGeometry x="70" y="500" width="100" height="40" as="geometry" />
        </mxCell>
        <mxCell id="KSNa818uE_4vNzoccC8n-33" style="edgeStyle=orthogonalEdgeStyle;rounded=0;orthogonalLoop=1;jettySize=auto;html=1;entryX=1;entryY=0.5;entryDx=0;entryDy=0;endArrow=none;endFill=0;" edge="1" parent="1" source="KSNa818uE_4vNzoccC8n-28" target="KSNa818uE_4vNzoccC8n-14">
          <mxGeometry relative="1" as="geometry" />
        </mxCell>
        <mxCell id="KSNa818uE_4vNzoccC8n-28" value="nombre" style="ellipse;whiteSpace=wrap;html=1;align=center;" vertex="1" parent="1">
          <mxGeometry x="740" y="160" width="100" height="40" as="geometry" />
        </mxCell>
        <mxCell id="KSNa818uE_4vNzoccC8n-34" style="edgeStyle=orthogonalEdgeStyle;rounded=0;orthogonalLoop=1;jettySize=auto;html=1;entryX=1;entryY=0.5;entryDx=0;entryDy=0;endArrow=none;endFill=0;" edge="1" parent="1" source="KSNa818uE_4vNzoccC8n-30" target="KSNa818uE_4vNzoccC8n-14">
          <mxGeometry relative="1" as="geometry" />
        </mxCell>
        <mxCell id="KSNa818uE_4vNzoccC8n-30" value="ID-cliente" style="ellipse;whiteSpace=wrap;html=1;align=center;fontStyle=4;" vertex="1" parent="1">
          <mxGeometry x="740" y="220" width="100" height="40" as="geometry" />
        </mxCell>
        <mxCell id="KSNa818uE_4vNzoccC8n-35" style="edgeStyle=orthogonalEdgeStyle;rounded=0;orthogonalLoop=1;jettySize=auto;html=1;entryX=1;entryY=0.5;entryDx=0;entryDy=0;endArrow=none;endFill=0;" edge="1" parent="1" source="KSNa818uE_4vNzoccC8n-31" target="KSNa818uE_4vNzoccC8n-14">
          <mxGeometry relative="1" as="geometry" />
        </mxCell>
        <mxCell id="KSNa818uE_4vNzoccC8n-31" value="correo electronico" style="ellipse;whiteSpace=wrap;html=1;align=center;" vertex="1" parent="1">
          <mxGeometry x="740" y="280" width="100" height="40" as="geometry" />
        </mxCell>
        <mxCell id="KSNa818uE_4vNzoccC8n-36" style="edgeStyle=orthogonalEdgeStyle;rounded=0;orthogonalLoop=1;jettySize=auto;html=1;entryX=1;entryY=0.5;entryDx=0;entryDy=0;endArrow=none;endFill=0;" edge="1" parent="1" source="KSNa818uE_4vNzoccC8n-32" target="KSNa818uE_4vNzoccC8n-14">
          <mxGeometry relative="1" as="geometry" />
        </mxCell>
        <mxCell id="KSNa818uE_4vNzoccC8n-32" value="num.telefonico" style="ellipse;shape=doubleEllipse;margin=3;whiteSpace=wrap;html=1;align=center;" vertex="1" parent="1">
          <mxGeometry x="740" y="340" width="100" height="40" as="geometry" />
        </mxCell>
        <mxCell id="KSNa818uE_4vNzoccC8n-37" value="vende" style="shape=rhombus;perimeter=rhombusPerimeter;whiteSpace=wrap;html=1;align=center;" vertex="1" parent="1">
          <mxGeometry x="310" y="520" width="120" height="60" as="geometry" />
        </mxCell>
        <mxCell id="KSNa818uE_4vNzoccC8n-50" style="edgeStyle=orthogonalEdgeStyle;rounded=0;orthogonalLoop=1;jettySize=auto;html=1;entryX=0;entryY=0.5;entryDx=0;entryDy=0;endArrow=ERmany;endFill=0;" edge="1" parent="1" source="KSNa818uE_4vNzoccC8n-39" target="KSNa818uE_4vNzoccC8n-40">
          <mxGeometry relative="1" as="geometry">
            <Array as="points">
              <mxPoint x="480" y="610" />
            </Array>
          </mxGeometry>
        </mxCell>
        <mxCell id="KSNa818uE_4vNzoccC8n-53" style="edgeStyle=orthogonalEdgeStyle;rounded=0;orthogonalLoop=1;jettySize=auto;html=1;endArrow=ERmany;endFill=0;" edge="1" parent="1" source="KSNa818uE_4vNzoccC8n-39">
          <mxGeometry relative="1" as="geometry">
            <mxPoint x="370" y="580" as="targetPoint" />
          </mxGeometry>
        </mxCell>
        <mxCell id="KSNa818uE_4vNzoccC8n-67" style="edgeStyle=orthogonalEdgeStyle;rounded=0;orthogonalLoop=1;jettySize=auto;html=1;entryX=0;entryY=0.5;entryDx=0;entryDy=0;endArrow=none;endFill=0;" edge="1" parent="1" source="KSNa818uE_4vNzoccC8n-39" target="KSNa818uE_4vNzoccC8n-62">
          <mxGeometry relative="1" as="geometry" />
        </mxCell>
        <mxCell id="KSNa818uE_4vNzoccC8n-68" style="edgeStyle=orthogonalEdgeStyle;rounded=0;orthogonalLoop=1;jettySize=auto;html=1;entryX=0;entryY=0.5;entryDx=0;entryDy=0;endArrow=none;endFill=0;" edge="1" parent="1" source="KSNa818uE_4vNzoccC8n-39" target="KSNa818uE_4vNzoccC8n-63">
          <mxGeometry relative="1" as="geometry" />
        </mxCell>
        <mxCell id="KSNa818uE_4vNzoccC8n-69" style="edgeStyle=orthogonalEdgeStyle;rounded=0;orthogonalLoop=1;jettySize=auto;html=1;entryX=0;entryY=0.5;entryDx=0;entryDy=0;endArrow=none;endFill=0;" edge="1" parent="1" source="KSNa818uE_4vNzoccC8n-39" target="KSNa818uE_4vNzoccC8n-64">
          <mxGeometry relative="1" as="geometry" />
        </mxCell>
        <mxCell id="KSNa818uE_4vNzoccC8n-70" style="edgeStyle=orthogonalEdgeStyle;rounded=0;orthogonalLoop=1;jettySize=auto;html=1;entryX=0;entryY=0.5;entryDx=0;entryDy=0;endArrow=none;endFill=0;" edge="1" parent="1" source="KSNa818uE_4vNzoccC8n-39" target="KSNa818uE_4vNzoccC8n-65">
          <mxGeometry relative="1" as="geometry" />
        </mxCell>
        <mxCell id="KSNa818uE_4vNzoccC8n-39" value="mascota" style="whiteSpace=wrap;html=1;align=center;" vertex="1" parent="1">
          <mxGeometry x="440" y="720" width="100" height="40" as="geometry" />
        </mxCell>
        <mxCell id="KSNa818uE_4vNzoccC8n-40" value="compra" style="shape=rhombus;perimeter=rhombusPerimeter;whiteSpace=wrap;html=1;align=center;" vertex="1" parent="1">
          <mxGeometry x="580" y="580" width="120" height="60" as="geometry" />
        </mxCell>
        <mxCell id="KSNa818uE_4vNzoccC8n-51" style="edgeStyle=orthogonalEdgeStyle;rounded=0;orthogonalLoop=1;jettySize=auto;html=1;entryX=0;entryY=0.5;entryDx=0;entryDy=0;endArrow=ERmany;endFill=0;" edge="1" parent="1" source="KSNa818uE_4vNzoccC8n-43" target="KSNa818uE_4vNzoccC8n-40">
          <mxGeometry relative="1" as="geometry">
            <Array as="points">
              <mxPoint x="240" y="610" />
            </Array>
          </mxGeometry>
        </mxCell>
        <mxCell id="KSNa818uE_4vNzoccC8n-52" style="edgeStyle=orthogonalEdgeStyle;rounded=0;orthogonalLoop=1;jettySize=auto;html=1;entryX=0.5;entryY=1;entryDx=0;entryDy=0;endArrow=ERmany;endFill=0;" edge="1" parent="1" source="KSNa818uE_4vNzoccC8n-43" target="KSNa818uE_4vNzoccC8n-37">
          <mxGeometry relative="1" as="geometry" />
        </mxCell>
        <mxCell id="KSNa818uE_4vNzoccC8n-57" style="edgeStyle=orthogonalEdgeStyle;rounded=0;orthogonalLoop=1;jettySize=auto;html=1;entryX=1;entryY=0.5;entryDx=0;entryDy=0;endArrow=none;endFill=0;" edge="1" parent="1" source="KSNa818uE_4vNzoccC8n-43" target="KSNa818uE_4vNzoccC8n-54">
          <mxGeometry relative="1" as="geometry" />
        </mxCell>
        <mxCell id="KSNa818uE_4vNzoccC8n-58" style="edgeStyle=orthogonalEdgeStyle;rounded=0;orthogonalLoop=1;jettySize=auto;html=1;entryX=1;entryY=0.5;entryDx=0;entryDy=0;endArrow=none;endFill=0;" edge="1" parent="1" source="KSNa818uE_4vNzoccC8n-43" target="KSNa818uE_4vNzoccC8n-55">
          <mxGeometry relative="1" as="geometry" />
        </mxCell>
        <mxCell id="KSNa818uE_4vNzoccC8n-59" style="edgeStyle=orthogonalEdgeStyle;rounded=0;orthogonalLoop=1;jettySize=auto;html=1;endArrow=none;endFill=0;" edge="1" parent="1" source="KSNa818uE_4vNzoccC8n-43" target="KSNa818uE_4vNzoccC8n-56">
          <mxGeometry relative="1" as="geometry" />
        </mxCell>
        <mxCell id="KSNa818uE_4vNzoccC8n-61" style="edgeStyle=orthogonalEdgeStyle;rounded=0;orthogonalLoop=1;jettySize=auto;html=1;entryX=1;entryY=0.5;entryDx=0;entryDy=0;endArrow=none;endFill=0;" edge="1" parent="1" source="KSNa818uE_4vNzoccC8n-43" target="KSNa818uE_4vNzoccC8n-60">
          <mxGeometry relative="1" as="geometry" />
        </mxCell>
        <mxCell id="KSNa818uE_4vNzoccC8n-43" value="producto" style="whiteSpace=wrap;html=1;align=center;" vertex="1" parent="1">
          <mxGeometry x="200" y="720" width="100" height="40" as="geometry" />
        </mxCell>
        <mxCell id="KSNa818uE_4vNzoccC8n-54" value="nombre_producto" style="ellipse;whiteSpace=wrap;html=1;align=center;" vertex="1" parent="1">
          <mxGeometry x="40" y="640" width="100" height="40" as="geometry" />
        </mxCell>
        <mxCell id="KSNa818uE_4vNzoccC8n-55" value="ID-producto" style="ellipse;whiteSpace=wrap;html=1;align=center;fontStyle=4;" vertex="1" parent="1">
          <mxGeometry x="40" y="700" width="100" height="40" as="geometry" />
        </mxCell>
        <mxCell id="KSNa818uE_4vNzoccC8n-56" value="categoria" style="ellipse;whiteSpace=wrap;html=1;align=center;dashed=1;" vertex="1" parent="1">
          <mxGeometry x="40" y="760" width="100" height="40" as="geometry" />
        </mxCell>
        <mxCell id="KSNa818uE_4vNzoccC8n-60" value="precio" style="ellipse;whiteSpace=wrap;html=1;align=center;" vertex="1" parent="1">
          <mxGeometry x="40" y="820" width="100" height="40" as="geometry" />
        </mxCell>
        <mxCell id="KSNa818uE_4vNzoccC8n-62" value="especie" style="ellipse;whiteSpace=wrap;html=1;align=center;" vertex="1" parent="1">
          <mxGeometry x="600" y="680" width="100" height="40" as="geometry" />
        </mxCell>
        <mxCell id="KSNa818uE_4vNzoccC8n-63" value="raza" style="ellipse;whiteSpace=wrap;html=1;align=center;" vertex="1" parent="1">
          <mxGeometry x="600" y="740" width="100" height="40" as="geometry" />
        </mxCell>
        <mxCell id="KSNa818uE_4vNzoccC8n-64" value="ID-animal" style="ellipse;whiteSpace=wrap;html=1;align=center;fontStyle=4;" vertex="1" parent="1">
          <mxGeometry x="600" y="800" width="100" height="40" as="geometry" />
        </mxCell>
        <mxCell id="KSNa818uE_4vNzoccC8n-65" value="edad" style="ellipse;whiteSpace=wrap;html=1;align=center;dashed=1;" vertex="1" parent="1">
          <mxGeometry x="600" y="860" width="100" height="40" as="geometry" />
        </mxCell>
        <mxCell id="KSNa818uE_4vNzoccC8n-66" value="precio" style="ellipse;whiteSpace=wrap;html=1;align=center;" vertex="1" parent="1">
          <mxGeometry x="600" y="920" width="100" height="40" as="geometry" />
        </mxCell>
        <mxCell id="KSNa818uE_4vNzoccC8n-71" style="edgeStyle=orthogonalEdgeStyle;rounded=0;orthogonalLoop=1;jettySize=auto;html=1;entryX=0;entryY=0.75;entryDx=0;entryDy=0;entryPerimeter=0;endArrow=none;endFill=0;" edge="1" parent="1" source="KSNa818uE_4vNzoccC8n-39" target="KSNa818uE_4vNzoccC8n-66">
          <mxGeometry relative="1" as="geometry" />
        </mxCell>
      </root>
    </mxGraphModel>
  </diagram>
</mxfile>
